<svg xmlns="http://www.w3.org/2000/svg" viewBox="0 0 100 100" preserveAspectRatio="xMidYMid" width="200" height="200" style="shape-rendering: auto; display: block; background: transparent;" xmlns:xlink="http://www.w3.org/1999/xlink"><g><g transform="translate(50 50)">
<g>
<animateTransform repeatCount="indefinite" dur="0.2183406113537118s" keyTimes="0;1" values="0;24" type="rotate" attributeName="transform"></animateTransform><path fill="#1d46a4" d="M35.651086939951774 -5 L39.651086939951774 -5 L39.651086939951774 5 L35.651086939951774 5 A36 36 0 0 1 34.6025717493934 9.932876135746481 L34.6025717493934 9.932876135746481 L38.2567535799638 11.559822708049682 L34.1893871492058 20.695277284475694 L30.535205318635395 19.068330712172493 A36 36 0 0 1 27.570957548869277 23.148267750275576 L27.570957548869277 23.148267750275576 L30.24747997430471 26.12084705218515 L22.816031719530766 32.81215311577374 L20.139509294095333 29.839573813864163 A36 36 0 0 1 15.772074313859612 32.36111357537144 L15.772074313859612 32.36111357537144 L17.008142291359402 36.165339640552055 L7.497577128407858 39.255509584301535 L6.2615091509080685 35.45128351912092 A36 36 0 0 1 1.2460561451866987 35.9784288717982 L1.2460561451866987 35.9784288717982 L0.8279422921160853 39.95651645327129 L-9.117276661566642 38.911231820594764 L-8.699162808496029 34.933144239121674 A36 36 0 0 1 -13.495416451053684 33.37474696252587 L-13.495416451053684 33.37474696252587 L-15.495416451053682 36.838848577663626 L-24.155670488898075 31.83884857766362 L-22.155670488898075 28.374746962525865 A36 36 0 0 1 -25.903408940897357 25.00026810337519 L-25.903408940897357 25.00026810337519 L-29.139476918397147 27.351409112545085 L-35.01732944132188 19.2612391687956 L-31.78126146382209 16.910098159625708 A36 36 0 0 1 -33.832466699777335 12.303015768845357 L-33.832466699777335 12.303015768845357 L-37.74505710271256 13.134662532116396 L-39.82417401089016 3.353186524778333 L-35.91158360795494 2.5215397615072934 A36 36 0 0 1 -35.91158360795494 -2.5215397615072686 L-35.91158360795494 -2.5215397615072686 L-39.82417401089016 -3.353186524778305 L-37.745057102712565 -13.134662532116371 L-33.83246669977734 -12.303015768845334 A36 36 0 0 1 -31.781261463822094 -16.9100981596257 L-31.781261463822094 -16.9100981596257 L-35.017329441321884 -19.26123916879559 L-29.13947691839715 -27.351409112545078 L-25.90340894089736 -25.000268103375184 A36 36 0 0 1 -22.155670488898085 -28.37474696252586 L-22.155670488898085 -28.37474696252586 L-24.15567048889809 -31.838848577663615 L-15.495416451053723 -36.83884857766361 L-13.495416451053721 -33.374746962525855 A36 36 0 0 1 -8.699162808496052 -34.93314423912166 L-8.699162808496052 -34.93314423912166 L-9.117276661566668 -38.91123182059475 L0.8279422921160409 -39.95651645327129 L1.2460561451866579 -35.9784288717982 A36 36 0 0 1 6.261509150908076 -35.45128351912092 L6.261509150908076 -35.45128351912092 L7.4975771284078645 -39.255509584301535 L17.00814229135938 -36.16533964055207 L15.77207431385959 -32.361113575371455 A36 36 0 0 1 20.139509294095326 -29.839573813864167 L20.139509294095326 -29.839573813864167 L22.81603171953076 -32.81215311577375 L30.247479974304685 -26.120847052185184 L27.570957548869252 -23.148267750275604 A36 36 0 0 1 30.535205318635388 -19.068330712172504 L30.535205318635388 -19.068330712172504 L34.18938714920579 -20.695277284475708 L38.256753579963785 -11.559822708049728 L34.602571749393384 -9.932876135746524 A36 36 0 0 1 35.651086939951774 -4.999999999999997 M0 -4A4 4 0 1 0 0 4 A4 4 0 1 0 0 -4"></path></g></g><g></g></g><!-- [ldio] generated by https://loading.io --></svg>